<svg xmlns="http://www.w3.org/2000/svg" xmlns:xlink="http://www.w3.org/1999/xlink" width="500" zoomAndPan="magnify" viewBox="0 0 375 374.999991" height="500" preserveAspectRatio="xMidYMid meet" version="1.0"><defs><clipPath id="id1"><path d="M 148.566406 106 L 198 106 L 198 134 L 148.566406 134 Z M 148.566406 106 " clip-rule="nonzero"/></clipPath><clipPath id="id2"><path d="M 210 146 L 239 146 L 239 195.597656 L 210 195.597656 Z M 210 146 " clip-rule="nonzero"/></clipPath><clipPath id="id3"><path d="M 166 82.347656 L 261.816406 82.347656 L 261.816406 179 L 166 179 Z M 166 82.347656 " clip-rule="nonzero"/></clipPath></defs><g clip-path="url(#id1)"><path fill="#076630" d="M 196.171875 115.011719 C 197.351562 113.960938 197.8125 112.308594 197.351562 110.796875 C 196.894531 109.273438 195.597656 108.15625 194.035156 107.933594 C 185.769531 106.738281 174.136719 105.496094 169.445312 106.4375 C 166.988281 106.921875 164.101562 108.308594 161.304688 110.085938 C 155.550781 113.761719 150.082031 119.046875 150.082031 119.046875 C 149.0625 120.042969 148.632812 121.5 148.949219 122.886719 C 149.261719 124.273438 150.28125 125.398438 151.636719 125.851562 L 175.292969 133.734375 C 176.953125 134.292969 178.769531 133.726562 179.828125 132.347656 C 184.652344 126.027344 190.230469 120.328125 196.171875 115.011719 " fill-opacity="1" fill-rule="evenodd"/></g><g clip-path="url(#id2)"><path fill="#076630" d="M 236.230469 150.132812 C 236.007812 148.570312 234.890625 147.269531 233.371094 146.816406 C 231.855469 146.355469 230.207031 146.816406 229.152344 147.996094 C 223.835938 153.933594 218.136719 159.515625 211.816406 164.335938 C 210.4375 165.394531 209.871094 167.214844 210.429688 168.871094 L 218.3125 192.527344 C 218.765625 193.882812 219.890625 194.90625 221.277344 195.214844 C 222.664062 195.535156 224.125 195.105469 225.121094 194.082031 C 225.121094 194.082031 230.40625 188.617188 234.078125 182.859375 C 235.855469 180.0625 237.242188 177.175781 237.730469 174.722656 C 238.671875 170.027344 237.425781 158.398438 236.230469 150.132812 " fill-opacity="1" fill-rule="evenodd"/></g><g clip-path="url(#id3)"><path fill="#7ed957" d="M 260.894531 87.152344 C 260.789062 85.058594 259.109375 83.375 257.011719 83.273438 C 249.886719 82.929688 238.457031 82.292969 231.519531 83.910156 C 223.675781 85.734375 212.445312 91.449219 206.214844 96.234375 C 191.164062 107.765625 176.433594 120.625 166.71875 137.234375 C 165.785156 138.835938 166.039062 140.871094 167.355469 142.175781 L 201.988281 176.808594 C 203.296875 178.125 205.328125 178.378906 206.929688 177.449219 C 223.542969 167.730469 236.398438 153 247.933594 137.953125 C 252.714844 131.71875 258.429688 120.488281 260.253906 112.644531 C 261.875 105.710938 261.234375 94.28125 260.894531 87.152344 " fill-opacity="1" fill-rule="evenodd"/></g><path fill="#076630" d="M 222.1875 121.980469 C 215.816406 115.609375 205.472656 115.609375 199.09375 121.980469 C 192.726562 128.347656 192.726562 138.695312 199.09375 145.070312 C 205.472656 151.4375 215.816406 151.4375 222.1875 145.070312 C 228.554688 138.695312 228.554688 128.347656 222.1875 121.980469 " fill-opacity="1" fill-rule="evenodd"/><path fill="#d7ffd5" d="M 158.699219 145.070312 L 154.441406 149.328125 C 152.847656 150.921875 152.847656 153.503906 154.441406 155.097656 C 156.027344 156.691406 158.621094 156.691406 160.214844 155.097656 L 164.46875 150.839844 C 166.0625 149.246094 166.0625 146.65625 164.46875 145.070312 C 162.875 143.476562 160.292969 143.476562 158.699219 145.070312 " fill-opacity="1" fill-rule="evenodd"/><path fill="#d7ffd5" d="M 170.242188 156.613281 L 158.699219 168.152344 C 157.105469 169.75 157.105469 172.332031 158.699219 173.925781 C 160.292969 175.519531 162.875 175.519531 164.46875 173.925781 L 176.011719 162.382812 C 177.605469 160.789062 177.605469 158.199219 176.011719 156.613281 C 174.417969 155.019531 171.835938 155.019531 170.242188 156.613281 " fill-opacity="1" fill-rule="evenodd"/><path fill="#d7ffd5" d="M 181.78125 168.152344 L 170.242188 179.695312 C 168.648438 181.289062 168.648438 183.871094 170.242188 185.46875 C 171.835938 187.0625 174.417969 187.0625 176.011719 185.46875 L 187.554688 173.925781 C 189.148438 172.332031 189.148438 169.75 187.554688 168.152344 C 185.96875 166.558594 183.375 166.558594 181.78125 168.152344 " fill-opacity="1" fill-rule="evenodd"/><path fill="#d7ffd5" d="M 193.324219 179.695312 L 189.003906 184.015625 C 187.417969 185.609375 187.417969 188.191406 189.003906 189.785156 C 190.597656 191.382812 193.1875 191.382812 194.78125 189.785156 L 199.09375 185.46875 C 200.6875 183.871094 200.6875 181.289062 199.09375 179.695312 C 197.507812 178.101562 194.917969 178.101562 193.324219 179.695312 " fill-opacity="1" fill-rule="evenodd"/></svg>